<svg width="606" height="602" viewBox="0 0 606 602" fill="none" xmlns="http://www.w3.org/2000/svg">
<path d="M160.544 2.00012L216.02 59.6407L158.38 115.117L102.904 57.476L160.544 2.00012Z" fill="#006345"/>
<path d="M58.8338 100.006L114.014 157.93L56.0903 213.11L0.91011 155.187L58.8338 100.006Z" fill="#006345"/>
<path d="M134.5 175.998L192.022 231.597L136.424 289.119L78.9017 233.52L134.5 175.998Z" fill="#006345"/>
<path d="M80.587 78.431L108.56 107.023L79.9683 134.996L51.9951 106.404L80.587 78.431Z" fill="#006345"/>
<path d="M186.245 128.434L214.562 156.686L186.31 185.003L157.993 156.751L186.245 128.434Z" fill="#006345"/>
<path d="M243 128.436L271.233 156.771L242.897 185.004L214.664 156.669L243 128.436Z" fill="#006345"/>
<path d="M2.99999 308.936V210.436L274.5 467.936L226.5 518.936L2.99999 308.936Z" fill="#01BC84"/>
<path d="M2.99999 458.436V359.436L200.5 547.936L152.5 599.936L2.99999 458.436Z" fill="#01BC84"/>
<path d="M160.544 2.00012L216.02 59.6407L158.38 115.117L102.904 57.476L160.544 2.00012Z" fill="#006345"/>
<path d="M58.8338 100.006L114.014 157.93L56.0903 213.11L0.91011 155.187L58.8338 100.006Z" fill="#006345"/>
<path d="M134.5 175.998L192.022 231.597L136.424 289.119L78.9017 233.52L134.5 175.998Z" fill="#006345"/>
<path d="M80.587 78.431L108.56 107.023L79.9683 134.996L51.9951 106.404L80.587 78.431Z" fill="#006345"/>
<path d="M186.245 128.434L214.562 156.686L186.31 185.003L157.993 156.751L186.245 128.434Z" fill="#006345"/>
<path d="M243 128.436L271.233 156.771L242.897 185.004L214.664 156.669L243 128.436Z" fill="#006345"/>
<path d="M2.99999 308.936V210.436L274.5 467.936L226.5 518.936L2.99999 308.936Z" fill="#01BC84"/>
<path d="M160.544 2.00012L216.02 59.6407L158.38 115.117L102.904 57.476L160.544 2.00012Z" fill="#006345"/>
<path d="M58.8338 100.006L114.014 157.93L56.0903 213.11L0.91011 155.187L58.8338 100.006Z" fill="#006345"/>
<path d="M134.5 175.998L192.022 231.597L136.424 289.119L78.9017 233.52L134.5 175.998Z" fill="#006345"/>
<path d="M80.587 78.431L108.56 107.023L79.9683 134.996L51.9951 106.404L80.587 78.431Z" fill="#006345"/>
<path d="M186.245 128.434L214.562 156.686L186.31 185.003L157.993 156.751L186.245 128.434Z" fill="#006345"/>
<path d="M243 128.436L271.233 156.771L242.897 185.004L214.664 156.669L243 128.436Z" fill="#006345"/>
<path d="M2.99999 308.936V210.436L274.5 467.936L226.5 518.936L2.99999 308.936Z" fill="#01BC84"/>
<path d="M2.99999 458.436V359.436L200.5 547.936L152.5 599.936L2.99999 458.436Z" fill="#01BC84"/>
<path d="M160.544 2.00012L216.02 59.6407L158.38 115.117L102.904 57.476L160.544 2.00012Z" fill="#006345"/>
<path d="M58.8338 100.006L114.014 157.93L56.0903 213.11L0.91011 155.187L58.8338 100.006Z" fill="#006345"/>
<path d="M134.5 175.998L192.022 231.597L136.424 289.119L78.9017 233.52L134.5 175.998Z" fill="#006345"/>
<path d="M80.587 78.431L108.56 107.023L79.9683 134.996L51.9951 106.404L80.587 78.431Z" fill="#006345"/>
<path d="M186.245 128.434L214.562 156.686L186.31 185.003L157.993 156.751L186.245 128.434Z" fill="#006345"/>
<path d="M243 128.436L271.233 156.771L242.897 185.004L214.664 156.669L243 128.436Z" fill="#006345"/>
<path d="M2.99999 308.936V210.436L274.5 467.936L226.5 518.936L2.99999 308.936Z" fill="#01BC84"/>
<path d="M445.956 599.936L390.48 542.296L448.12 486.82L503.596 544.46L445.956 599.936Z" fill="#006345"/>
<path d="M547.666 501.93L492.486 444.006L550.41 388.826L605.59 446.75L547.666 501.93Z" fill="#006345"/>
<path d="M472 425.938L414.478 370.339L470.076 312.818L527.598 368.416L472 425.938Z" fill="#006345"/>
<path d="M525.913 523.505L497.94 494.913L526.532 466.94L554.505 495.532L525.913 523.505Z" fill="#006345"/>
<path d="M420.255 473.502L391.938 445.25L420.19 416.934L448.507 445.186L420.255 473.502Z" fill="#006345"/>
<path d="M363.5 473.5L335.267 445.165L363.603 416.932L391.836 445.267L363.5 473.5Z" fill="#006345"/>
<path d="M603.5 293L603.5 391.5L332 134L380 83.0003L603.5 293Z" fill="#01BC84"/>
<path d="M603.5 143.5L603.5 242.5L406 54.0003L454 2.00035L603.5 143.5Z" fill="#01BC84"/>
<path d="M445.956 599.936L390.48 542.296L448.12 486.82L503.596 544.46L445.956 599.936Z" fill="#006345"/>
<path d="M547.666 501.93L492.486 444.006L550.41 388.826L605.59 446.75L547.666 501.93Z" fill="#006345"/>
<path d="M472 425.938L414.478 370.339L470.076 312.818L527.598 368.416L472 425.938Z" fill="#006345"/>
<path d="M525.913 523.505L497.94 494.913L526.532 466.94L554.505 495.532L525.913 523.505Z" fill="#006345"/>
<path d="M420.255 473.502L391.938 445.25L420.19 416.934L448.507 445.186L420.255 473.502Z" fill="#006345"/>
<path d="M363.5 473.5L335.267 445.165L363.603 416.932L391.836 445.267L363.5 473.5Z" fill="#006345"/>
<path d="M603.5 293L603.5 391.5L332 134L380 83.0003L603.5 293Z" fill="#01BC84"/>
<path d="M445.956 599.936L390.48 542.296L448.12 486.82L503.596 544.46L445.956 599.936Z" fill="#006345"/>
<path d="M547.666 501.93L492.486 444.006L550.41 388.826L605.59 446.75L547.666 501.93Z" fill="#006345"/>
<path d="M472 425.938L414.478 370.339L470.076 312.818L527.598 368.416L472 425.938Z" fill="#006345"/>
<path d="M525.913 523.505L497.94 494.913L526.532 466.94L554.505 495.532L525.913 523.505Z" fill="#006345"/>
<path d="M420.255 473.502L391.938 445.25L420.19 416.934L448.507 445.186L420.255 473.502Z" fill="#006345"/>
<path d="M363.5 473.5L335.267 445.165L363.603 416.932L391.836 445.267L363.5 473.5Z" fill="#006345"/>
<path d="M603.5 293L603.5 391.5L332 134L380 83.0003L603.5 293Z" fill="#01BC84"/>
<path d="M603.5 143.5L603.5 242.5L406 54.0003L454 2.00035L603.5 143.5Z" fill="#01BC84"/>
<path d="M445.956 599.936L390.48 542.296L448.12 486.82L503.596 544.46L445.956 599.936Z" fill="#006345"/>
<path d="M547.666 501.93L492.486 444.006L550.41 388.826L605.59 446.75L547.666 501.93Z" fill="#006345"/>
<path d="M472 425.938L414.478 370.339L470.076 312.818L527.598 368.416L472 425.938Z" fill="#006345"/>
<path d="M525.913 523.505L497.94 494.913L526.532 466.94L554.505 495.532L525.913 523.505Z" fill="#006345"/>
<path d="M420.255 473.502L391.938 445.25L420.19 416.934L448.507 445.186L420.255 473.502Z" fill="#006345"/>
<path d="M363.5 473.5L335.267 445.165L363.603 416.932L391.836 445.267L363.5 473.5Z" fill="#006345"/>
<path d="M603.5 293L603.5 391.5L332 134L380 83.0003L603.5 293Z" fill="#01BC84"/>
</svg>
